<svg width="68" height="63" viewBox="0 0 68 63" fill="none" xmlns="http://www.w3.org/2000/svg">
<path d="M26.0654 8.52493C26.1032 9.18918 27.9934 25.7738 27.9934 25.7738L36.5341 31.077L45.9848 35.7807L45.6284 28.7062L38.0273 23.7297L35.1138 12.5698L26.4219 8.51953" fill="#2B0245"/>
<path d="M36.4639 48.4633L33.0941 55.8942L46.325 50.0213C46.325 50.0213 46.2548 46.781 46.0226 46.8296C45.7904 46.8782 36.4639 48.4633 36.4639 48.4633Z" fill="#2B0245"/>
<path d="M13.5149 47.1997L4.79597 49.7676L4.28833 54.8413L14.5734 53.3886L13.5149 47.1997Z" fill="#2B0245"/>
<path d="M37.2496 48.9519C36.9433 48.9508 36.6406 48.8851 36.3614 48.759C36.0823 48.6329 35.8328 48.4492 35.6295 48.2201L34.193 46.6L19.6119 45.3552C19.1839 45.3179 18.7792 45.1436 18.458 44.8582C18.1368 44.5727 17.9162 44.1913 17.8289 43.7706C17.7416 43.3498 17.7923 42.9121 17.9734 42.5225C18.1545 42.1328 18.4564 41.8119 18.8343 41.6073L31.4118 34.8758L26.3813 29.1351C26.1581 28.8804 26.0038 28.5727 25.9331 28.2414L21.0727 4.72267C21.0111 4.43342 21.0153 4.13401 21.0849 3.84657C21.1545 3.55914 21.2879 3.29103 21.4751 3.06205C21.6392 2.85799 21.8419 2.68832 22.0718 2.56277C22.3016 2.43722 22.5539 2.35826 22.8143 2.33042C23.0746 2.30257 23.338 2.32639 23.5891 2.40051C23.8403 2.47463 24.0743 2.59758 24.2779 2.76233L27.6531 5.50033L27.8475 2.06028C27.8807 1.50085 28.1271 0.975412 28.536 0.592153C28.9448 0.208893 29.4851 -0.00302243 30.0455 3.25773e-05C30.4414 -0.000553087 30.8299 0.107688 31.1685 0.31293C31.5071 0.518173 31.7827 0.812521 31.9653 1.16382C34.3037 5.61374 39.0047 18.1048 40.8382 23.0543L43.7328 20.9752C44.074 20.7267 44.4853 20.5928 44.9074 20.5928C45.3295 20.5928 45.7407 20.7267 46.082 20.9752L50.459 24.2154C50.7933 24.4635 51.0417 24.8098 51.1696 25.206C51.2975 25.6021 51.2984 26.0284 51.1723 26.4251C51.0462 26.8218 50.7994 27.1693 50.4662 27.4189C50.1331 27.6685 49.7303 27.8078 49.3141 27.8174H48.7282L49.6165 36.3231C49.6537 36.6832 49.5925 37.0467 49.4394 37.3749C49.2863 37.703 49.047 37.9834 48.7471 38.1862L40.6249 43.6622L39.3153 47.4749C39.1675 47.9054 38.889 48.2791 38.5188 48.5438C38.1485 48.8086 37.7048 48.9512 37.2496 48.9519ZM45.2233 33.847L45.1585 33.2124L44.1405 32.4024L44.5888 33.658L45.2233 33.847ZM29.0221 22.7519L33.4315 16.8574L26.4137 10.4066L29.0221 22.7519Z" fill="#2B0245"/>
<path d="M5.36028 61.5647L5.17937 61.5242C4.57481 61.4099 4.03046 61.0847 3.64327 60.6065C3.25609 60.1283 3.0512 59.5283 3.06512 58.9131C3.06512 58.8294 3.06512 58.743 3.06512 58.6593C2.13895 58.4892 0.940062 57.8844 0.238011 56.0293C0.0743085 55.6077 -0.00637647 55.1585 0.000393286 54.7062C0.000393286 51.6091 2.16055 48.7658 6.63208 46.0656L6.66718 46.0413L6.70498 46.0224C9.07035 44.7452 11.244 44.0972 13.1693 44.0972C14.9352 44.0972 16.2313 45.1772 16.72 47.0377L16.7362 47.0998L16.8523 47.764L16.7659 48.107C16.18 50.3697 15.0027 50.845 14.1197 50.845H13.8254L13.5689 50.7423C13.6526 50.845 13.7363 50.9557 13.82 51.0772L14.144 51.5524L14.0954 52.114C14.0305 52.725 13.8644 53.3208 13.604 53.8773V54.5442C13.604 55.141 13.334 55.8943 12.2188 56.3398C9.7319 59.9041 7.59064 61.5647 5.5466 61.5647H5.36028ZM5.51419 52.9241C5.25572 53.2166 5.01584 53.5251 4.79594 53.8476C5.91382 53.3075 7.69865 52.2653 10.4853 50.205L10.6797 50.0619L11.4222 49.7919H11.6922C11.9756 49.7912 12.2564 49.8462 12.5185 49.9539C12.3454 49.6887 12.2517 49.3795 12.2485 49.0628V48.9575C10.9362 49.2275 9.42948 49.8675 7.74456 50.899C7.39353 51.115 6.71308 51.6415 5.51419 52.9241Z" fill="#2B0245"/>
<path d="M13.0072 59.8716C11.5275 59.8716 10.7526 59.237 10.361 58.7024C9.87573 58.0298 9.64423 57.2072 9.70759 56.3802V56.2587C9.70759 54.3686 10.7877 52.5379 13.0396 50.6855L13.0774 50.6504L13.1206 50.6207C14.5166 49.6081 15.7668 49.1167 16.9387 49.1167C18.2159 49.1167 19.0989 50.1752 19.7388 51.0986L19.8522 51.2607L19.9197 51.447C20.0154 51.6777 20.0631 51.9255 20.0598 52.1753C20.0566 52.425 20.0025 52.6715 19.9008 52.8997C19.9008 52.9645 19.9197 53.0266 19.9251 53.0941C20.0898 55.0139 18.9045 56.8744 16.3069 58.7645L16.2556 58.7996L16.2043 58.832C15.081 59.5314 14.1224 59.8716 13.2745 59.8716H13.0045H13.0072Z" fill="#2B0245"/>
<path d="M13.1801 45.7144C14.2008 45.7144 14.8614 46.2913 15.162 47.4452L15.2079 47.6963C14.9469 48.7152 14.5869 49.2237 14.1279 49.2219C13.9631 49.1571 13.8821 49.1031 13.8821 49.0572V48.9762C14.3214 48.501 14.5419 48.0509 14.5437 47.6261V47.5235C14.5437 47.3507 14.1981 47.2373 13.5095 47.1887C11.6284 47.1887 9.42952 47.9591 6.91294 49.5C6.25949 49.8961 5.39183 50.6665 4.30995 51.8114C3.12726 53.1651 2.53592 54.3613 2.53592 55.4C2.53592 55.7375 2.74114 55.94 3.15156 55.9805C4.62767 55.9805 7.39177 54.4819 11.4439 51.4847L11.6977 51.3956C11.9677 51.3956 12.2161 51.5873 12.478 51.9734C12.424 52.6233 12.0793 53.4486 11.4439 54.4495H11.8921L11.9758 54.5305C11.9758 54.6898 11.7058 54.8275 11.1954 54.9463C8.93988 58.2784 7.05695 59.9444 5.54664 59.9444C5.29868 59.9146 5.07145 59.7912 4.91137 59.5995C4.75128 59.4078 4.67042 59.1622 4.68528 58.9129C4.68528 57.8094 6.11458 56.5016 8.97319 54.9895L10.1316 54.5818C10.6936 53.8775 11.1269 53.0795 11.4115 52.2245C7.46738 55.4756 4.90849 57.0957 3.73481 57.0849C2.83474 57.0849 2.17589 56.5331 1.75826 55.4297C1.67159 55.2002 1.62854 54.9566 1.63135 54.7114C1.63135 52.2488 3.5836 49.8268 7.48808 47.4452C9.62123 46.2895 11.5186 45.7126 13.1801 45.7144ZM5.34952 58.9453H5.43053C6.19018 58.9453 7.60689 57.6942 9.68064 55.192H9.63743C8.32626 55.8135 7.12801 56.6494 6.09208 57.6654C5.59524 58.2379 5.34682 58.6618 5.34682 58.9561L5.34952 58.9453Z" fill="#FEB93F"/>
<path d="M19.9927 59.8716C18.513 59.8716 17.7353 59.237 17.3465 58.7024C16.8612 58.0298 16.6297 57.2072 16.6931 56.3802V56.2587C16.6931 54.3686 17.7731 52.5379 20.0224 50.6855L20.0629 50.6504L20.1061 50.6207C21.5021 49.6081 22.7496 49.1167 23.9242 49.1167C25.2014 49.1167 26.0843 50.1752 26.7243 51.0986L26.835 51.2607L26.9052 51.447C27.0003 51.6779 27.0476 51.9256 27.0444 52.1753C27.0411 52.4249 26.9873 52.6713 26.8863 52.8997C26.8863 52.9645 26.9052 53.0266 26.9106 53.0941C27.0753 55.0139 25.8899 56.8744 23.2896 58.7645L23.241 58.7996L23.1897 58.832C22.0664 59.5314 21.1079 59.8716 20.26 59.8716H19.9927Z" fill="#2B0245"/>
<path d="M16.9387 50.7368C17.3312 50.7368 17.819 51.1626 18.4022 52.014C18.4779 52.2138 18.432 52.3029 18.2699 52.284C18.0231 52.1081 17.7325 52.0035 17.4302 51.9816C16.2259 51.9816 14.8407 52.8628 13.2746 54.6251C12.6571 55.4784 12.3376 56.2218 12.316 56.8555V56.9743C12.3376 57.2578 12.5374 57.4279 12.9181 57.4873C13.8848 57.4873 15.1386 56.4126 16.6795 54.2633C16.9513 53.8382 17.1025 53.3473 17.117 52.843C17.117 52.7485 17.0089 52.6324 16.8064 52.4946V52.4487C16.8064 52.3704 16.8712 52.3191 17.0035 52.2975C17.1591 52.2748 17.3163 52.2658 17.4734 52.2705C17.9756 52.3299 18.2537 52.6567 18.3131 53.2453C18.4229 54.518 17.4329 55.9176 15.3429 57.4441C14.4933 57.9734 13.802 58.238 13.2692 58.238H13.1369C12.4168 58.2632 11.9254 58.0949 11.6626 57.733C11.3959 57.3556 11.2768 56.8935 11.3277 56.4342V56.256C11.3277 54.8843 12.2422 53.4442 14.0711 51.9357C15.171 51.1364 16.1269 50.7368 16.9387 50.7368Z" fill="#FEB93F"/>
<path d="M30.7692 59.9878C30.3554 59.9876 29.9474 59.8897 29.5786 59.702C29.2098 59.5143 28.8905 59.2422 28.6468 58.9077C27.7882 59.6124 27.2373 59.8123 26.7783 59.8852L26.6541 59.9041H26.5245C25.6658 59.9041 24.4723 59.499 23.6515 57.5738L23.5219 57.2687V56.6044C23.5219 55.0005 24.4534 53.3264 26.3706 51.4903L26.3949 51.4633L26.4246 51.439C28.0231 50.0403 29.4299 49.3598 30.7233 49.3598C30.9852 49.3598 31.2446 49.4102 31.4874 49.5083L32.3218 48.3985L32.365 48.3499C35.4162 44.9126 36.6313 44.2402 37.6952 44.2402C38.8968 44.2402 39.6879 45.2339 40.1794 45.9819L40.4494 46.3869V47.0133V47.0727C40.3711 48.1177 39.7554 49.5866 33.3587 54.9438C32.9747 55.4673 32.6463 56.0292 32.3785 56.6206H32.6485V59.9851L30.7692 59.9878Z" fill="#2B0245"/>
<path d="M23.9242 50.7368C24.3166 50.7368 24.8044 51.1626 25.3877 52.014C25.4633 52.2138 25.4174 52.3029 25.2554 52.284C25.0085 52.1081 24.718 52.0035 24.4156 51.9816C23.2113 51.9816 21.8261 52.8628 20.26 54.6251C19.6426 55.4784 19.323 56.2218 19.3014 56.8555V56.9743C19.323 57.2578 19.5228 57.4279 19.9036 57.4873C20.863 57.4945 22.1168 56.4234 23.6649 54.2741C23.9368 53.849 24.088 53.3581 24.1024 52.8538C24.1024 52.7593 23.9944 52.6432 23.7892 52.5054V52.4595C23.7892 52.3812 23.8567 52.3299 23.9863 52.3083C24.1427 52.2857 24.3008 52.2767 24.4588 52.2813C24.9583 52.3407 25.2392 52.6675 25.2986 53.2561C25.4066 54.5288 24.4165 55.9284 22.3283 57.4549C21.4769 57.9842 20.7856 58.2488 20.2546 58.2488H20.1277C19.4076 58.274 18.9153 58.1057 18.6507 57.7438C18.3805 57.3639 18.2603 56.8975 18.3132 56.4342V56.256C18.3132 54.8843 19.2276 53.4442 21.0566 51.9357C22.1474 51.1364 23.1033 50.7368 23.9242 50.7368Z" fill="#FEB93F"/>
<path d="M34.4468 62.6718C32.1328 62.6718 31.2066 61.3595 30.8448 60.5468C30.6821 60.1799 30.6028 59.7815 30.6126 59.3803V59.2831C30.6126 56.7881 32.7241 54.5226 37.0687 52.3625C37.3819 52.2113 37.7195 52.0628 38.0759 51.917C37.5088 51.5902 36.9256 50.98 36.5044 49.8675L36.4018 49.5975V49.0818C36.4018 46.5193 39.534 45.3879 41.8913 44.7614H41.9318H41.9696C43.7601 44.3642 45.5873 44.1552 47.4213 44.1377C49.8379 44.1377 50.864 45.1557 51.3014 46.0089L51.4797 46.3573V46.9783V47.0701C51.4095 47.6804 51.1475 48.4634 49.1143 50.9449C49.4227 51.2613 49.5952 51.6857 49.5949 52.1276V52.8215L48.4878 53.9772H46.6868C45.2044 55.708 43.8354 57.2174 42.6095 58.4298L42.569 58.4703L42.5258 58.5081C39.264 61.2947 36.6232 62.6718 34.4468 62.6718ZM41.6591 50.4616L41.3242 50.8747L41.4754 50.8342L43.506 50.4426C44.046 49.7487 44.5159 49.1601 44.9047 48.6605C44.4565 48.7469 43.9884 48.8459 43.5006 48.9575C42.7012 49.2164 41.9395 49.5796 41.2351 50.0376L41.6591 50.4616Z" fill="#2B0245"/>
<path d="M37.6952 45.8628C38.0057 45.8628 38.381 46.1976 38.8239 46.8727V46.9537C38.7537 47.8861 36.5287 50.1804 32.149 53.8365C31.0689 55.345 30.5288 56.561 30.5288 57.4844C30.5288 57.9894 30.6963 58.2432 31.0338 58.2432V58.3674H30.7827C30.1616 58.3674 29.7701 57.9084 29.6081 56.9849V56.7716C29.6124 56.2998 29.6974 55.8323 29.8592 55.3891C28.2697 57.2234 27.1626 58.1892 26.538 58.2864C25.9979 58.2864 25.5389 57.8382 25.1555 56.9363V56.6015C25.1555 55.4728 25.9385 54.1578 27.5046 52.6565C28.7827 51.5368 29.8628 50.977 30.7449 50.977C31.0059 50.977 31.3128 51.2839 31.6656 51.8977V51.9868L33.599 49.4243C35.6889 47.05 37.0543 45.8628 37.6952 45.8628ZM26.0654 57.2036C26.1032 57.3332 26.1599 57.4034 26.2355 57.4115C26.979 57.1955 28.3786 56.0641 30.4343 54.0174C30.9744 53.3585 31.2669 52.841 31.3119 52.4648C31.2849 52.3487 31.2012 52.292 31.0581 52.292H30.8934C29.8781 52.292 28.5757 53.2163 26.9862 55.0651C26.3705 55.9156 26.0654 56.6285 26.0654 57.1928V57.2036ZM32.5729 52.8428H32.6107C35.4531 50.2614 37.2019 48.4982 37.8572 47.5531L38.0273 47.2183H37.9841C37.2064 47.7475 36.0364 48.8276 34.4738 50.4585C33.2065 51.9022 32.5729 52.6934 32.5729 52.832V52.8428Z" fill="#FEB93F"/>
<path d="M49.495 25.544L45.1234 22.3038C45.0587 22.2566 44.9807 22.2311 44.9006 22.2311C44.8205 22.2311 44.7425 22.2566 44.6778 22.3038L40.4574 25.3226C40.4102 25.3565 40.3557 25.3792 40.2983 25.3886C40.2409 25.3981 40.1821 25.3942 40.1264 25.3772C40.0707 25.3602 40.0197 25.3306 39.9774 25.2907C39.9351 25.2508 39.9025 25.2016 39.8823 25.1471C38.8292 22.2741 33.1318 6.83974 30.5342 1.92538C30.4764 1.81753 30.385 1.73149 30.2739 1.68034C30.1628 1.62919 30.0379 1.61574 29.9185 1.64202C29.799 1.6683 29.6913 1.73288 29.6119 1.82595C29.5325 1.91901 29.4856 2.03546 29.4784 2.1576L29.1463 8.02242C29.1426 8.09172 29.1197 8.15863 29.0803 8.21572C29.0408 8.27281 28.9863 8.31785 28.9228 8.34583C28.8593 8.3738 28.7893 8.38362 28.7205 8.3742C28.6518 8.36478 28.587 8.33647 28.5334 8.29244L23.2761 4.02613C23.2158 3.97669 23.1417 3.94723 23.0639 3.94184C22.9862 3.93646 22.9087 3.95542 22.8422 3.99608C22.7757 4.03675 22.7235 4.09711 22.6929 4.16879C22.6622 4.24046 22.6547 4.3199 22.6712 4.39606L27.5316 27.9013C27.5444 27.9642 27.5732 28.0228 27.6153 28.0714L33.6529 34.992C33.6901 35.0347 33.7172 35.0853 33.7322 35.1399C33.7472 35.1945 33.7498 35.2518 33.7397 35.3075C33.7295 35.3633 33.707 35.416 33.6738 35.4619C33.6406 35.5077 33.5974 35.5456 33.5476 35.5725L19.5876 43.0386C19.5183 43.0773 19.4629 43.1369 19.4294 43.2089C19.3959 43.2809 19.3859 43.3616 19.4008 43.4397C19.4157 43.5177 19.4549 43.589 19.5126 43.6435C19.5704 43.698 19.6439 43.7329 19.7226 43.7433L34.8086 45.0313C34.9052 45.0387 34.9952 45.0832 35.0597 45.1555L36.823 47.1402C36.8882 47.2133 36.9715 47.2682 37.0645 47.2992C37.1575 47.3302 37.2571 47.3363 37.3532 47.3169C37.4493 47.2975 37.5387 47.2533 37.6124 47.1886C37.6861 47.124 37.7416 47.0412 37.7734 46.9484L39.218 42.7388C39.2448 42.6602 39.297 42.5927 39.3665 42.5471L47.8317 36.8767C47.8882 36.8385 47.9334 36.7857 47.9624 36.7239C47.9914 36.6621 48.0032 36.5936 47.9964 36.5257L46.9676 26.6781C46.9619 26.6262 46.9672 26.5737 46.983 26.5239C46.9988 26.4741 47.0248 26.4282 47.0594 26.3891C47.094 26.3499 47.1363 26.3184 47.1837 26.2966C47.2311 26.2748 47.2826 26.2631 47.3348 26.2622L49.2682 26.219C49.3461 26.2176 49.4218 26.1921 49.4847 26.146C49.5476 26.0999 49.5947 26.0354 49.6195 25.9615C49.6444 25.8875 49.6458 25.8077 49.6235 25.733C49.6012 25.6582 49.5563 25.5922 49.495 25.544ZM28.6657 25.922C28.6221 25.9801 28.5627 26.0245 28.4946 26.0497C28.4265 26.075 28.3526 26.0801 28.2816 26.0644C28.2107 26.0488 28.1458 26.013 28.0947 25.9614C28.0435 25.9098 28.0083 25.8446 27.9933 25.7735L24.0429 6.93964C24.0269 6.86161 24.036 6.78053 24.0688 6.70795C24.1016 6.63538 24.1566 6.57502 24.2257 6.5355C24.2949 6.49598 24.3747 6.47932 24.4539 6.48789C24.5331 6.49646 24.6076 6.52982 24.6667 6.58322L35.3595 16.4254C35.4246 16.492 35.463 16.5802 35.4675 16.6733C35.472 16.7663 35.4422 16.8578 35.3838 16.9304L28.6657 25.922ZM37.0822 46.1411L36.0642 44.8234L37.8625 43.4139L37.0822 46.1411ZM39.3962 36.8362L27.0132 43.6596C26.9469 43.6976 26.8704 43.7137 26.7944 43.7055L22.1528 43.2465C22.1024 43.2409 22.0551 43.2194 22.0178 43.185C21.9805 43.1507 21.9552 43.1053 21.9455 43.0555C21.9359 43.0057 21.9424 42.9542 21.9642 42.9084C21.9859 42.8626 22.0217 42.8249 22.0664 42.8009L34.8086 36.1828C34.8631 36.1557 34.9233 36.1418 34.9841 36.1423H39.2153C39.2954 36.1459 39.3723 36.175 39.4346 36.2254C39.4969 36.2759 39.5414 36.3449 39.5617 36.4225C39.5819 36.5001 39.5767 36.5821 39.547 36.6566C39.5172 36.731 39.4644 36.794 39.3962 36.8362ZM47.0324 35.5617C47.0388 35.6236 47.0298 35.6862 47.0061 35.7437C46.9824 35.8012 46.9447 35.852 46.8965 35.8913C46.8483 35.9307 46.791 35.9575 46.7299 35.9692C46.6688 35.981 46.6057 35.9773 46.5464 35.9586L43.5167 35.0136C43.4611 34.9962 43.4102 34.9662 43.368 34.926C43.3258 34.8857 43.2936 34.8362 43.2737 34.7814L41.1298 28.7869C41.1028 28.7096 41.1016 28.6257 41.1264 28.5477C41.1512 28.4697 41.2006 28.4018 41.2673 28.3543C41.334 28.3068 41.4143 28.2823 41.4961 28.2843C41.5779 28.2864 41.6569 28.3149 41.7211 28.3657L46.5815 32.2783C46.6201 32.3093 46.6523 32.3477 46.6759 32.3913C46.6996 32.4349 46.7143 32.4828 46.7192 32.5321L47.0324 35.5617ZM46.9136 25.4954H42.7796C42.6981 25.4946 42.6191 25.4675 42.5543 25.4182C42.4894 25.3689 42.4423 25.2999 42.4198 25.2216C42.3973 25.1433 42.4008 25.0598 42.4296 24.9836C42.4584 24.9074 42.5111 24.8426 42.5798 24.7987L44.7696 23.4486C44.8315 23.4083 44.9037 23.3869 44.9775 23.3869C45.0514 23.3869 45.1236 23.4083 45.1855 23.4486L47.1296 24.7987C47.1995 24.8433 47.2529 24.9096 47.2814 24.9874C47.31 25.0653 47.3121 25.1503 47.2876 25.2295C47.263 25.3087 47.2131 25.3777 47.1455 25.4257C47.078 25.4737 46.9965 25.4982 46.9136 25.4954Z" fill="#FEB93F"/>
<path d="M45.8363 59.8716C44.3593 59.8716 43.5817 59.237 43.1901 58.7024C42.7058 58.0295 42.4753 57.2068 42.5394 56.3802V56.2587C42.5394 54.3686 43.6195 52.5379 45.8687 50.6855L45.9092 50.6504L45.9497 50.6207C47.3457 49.6081 48.5959 49.1167 49.7705 49.1167C51.045 49.1167 51.9307 50.1752 52.5706 51.0986L52.6813 51.2607L52.7515 51.447C52.8464 51.6779 52.8937 51.9256 52.8904 52.1753C52.8872 52.4249 52.8335 52.6713 52.7326 52.8997L52.7569 53.0941C52.9216 55.0139 51.7363 56.8744 49.136 58.7645L49.0874 58.7996L49.0361 58.832C47.9101 59.5314 46.9515 59.8716 46.1064 59.8716H45.8363Z" fill="#2B0245"/>
<path d="M47.4213 45.728C48.7083 45.728 49.5184 46.0574 49.8514 46.7163V46.8567C49.7812 47.4724 48.5472 49.1447 46.1495 51.8737H46.1954C47.3673 51.8737 47.9559 51.9493 47.9559 52.0978V52.141L47.7777 52.3273H45.9199C44.2692 54.2804 42.7778 55.9231 41.4457 57.2552C38.5259 59.7861 36.1902 61.0516 34.4387 61.0516C33.3586 61.0516 32.6503 60.6601 32.3137 59.877C32.2471 59.7202 32.2166 59.5504 32.2246 59.3802V59.283C32.2246 57.4829 34.0769 55.6593 37.7816 53.8124C39.0757 53.2167 40.425 52.7491 41.8102 52.4164L44.3808 51.9196C47.036 48.5695 48.3636 46.8054 48.3636 46.6272C46.5631 46.6982 44.7748 46.957 43.028 47.3994C41.1451 48.0529 39.9246 48.7729 39.3666 49.5596C39.2654 49.7233 39.2035 49.9081 39.1857 50.0996C39.2172 50.2765 39.3135 50.4353 39.4557 50.5452L39.4098 50.5965V50.6424C38.8211 50.6424 38.354 50.1887 38.0138 49.2923V49.0709C38.0138 47.9908 39.4431 47.0718 42.3017 46.314C43.983 45.9398 45.6989 45.7434 47.4213 45.728ZM33.094 59.4234V59.4693C33.094 59.7987 33.3478 59.9662 33.8582 59.9662C35.9859 59.9662 39.0749 57.8114 43.1252 53.5019L43.8462 52.5946H43.803C40.5286 53.2247 37.7717 54.4011 35.5323 56.1238C33.9068 57.3821 33.094 58.4819 33.094 59.4234Z" fill="#FEB93F"/>
<path d="M53.1484 59.8688L53.0107 59.8445C52.3399 59.7541 51.7228 59.4288 51.2691 58.9265C50.7422 58.8865 50.2507 58.6462 49.8956 58.255C49.5405 57.8637 49.3488 57.3513 49.36 56.823C49.36 55.9968 49.7705 54.9329 51.7632 52.4568C52.603 51.3578 54.2069 49.4218 56.6641 46.5407C56.8558 46.2923 56.9908 46.1086 57.0826 45.9709L56.9935 45.2932L58.1735 44.3076H58.8053C59.6154 44.3076 60.7333 44.6802 61.5055 46.4543L61.6405 46.7648V47.2292C61.6405 47.8395 61.492 48.4389 59.9556 50.0968C60.2955 50.341 60.5724 50.6625 60.7635 51.0348C60.9546 51.4072 61.0544 51.8196 61.0546 52.2381V52.4217L61.0276 52.5648C60.8089 53.7799 59.9286 55.265 58.2653 57.1984L58.2275 57.2443L58.187 57.2848C56.4723 59.0237 54.8846 59.8688 53.3266 59.8688H53.1484Z" fill="#2B0245"/>
<path d="M49.7705 50.7368C50.1621 50.7368 50.6481 51.1635 51.234 52.014C51.3069 52.2138 51.2637 52.3029 51.099 52.284C50.8523 52.1077 50.5617 52.0031 50.2593 51.9816C49.055 51.9816 47.6707 52.8628 46.1064 54.6251C45.488 55.4784 45.1667 56.2209 45.1478 56.8555V56.9743C45.1667 57.2578 45.3692 57.4279 45.7499 57.4873C46.7166 57.4873 47.9695 56.4126 49.5086 54.2633C49.7824 53.839 49.9346 53.3477 49.9487 52.843C49.9487 52.7485 49.838 52.6324 49.6355 52.4946V52.4487C49.6355 52.3704 49.7003 52.3191 49.8326 52.2975C49.9891 52.2749 50.1472 52.2659 50.3052 52.2705C50.8047 52.3299 51.0855 52.6567 51.1449 53.2453C51.2529 54.518 50.2629 55.9176 48.1747 57.4441C47.3215 57.9734 46.6302 58.238 46.101 58.238H45.966C45.2459 58.2632 44.7545 58.0949 44.4916 57.733C44.226 57.3552 44.1078 56.8932 44.1595 56.4342V56.256C44.1595 54.8843 45.0731 53.4442 46.9002 51.9357C48.0019 51.1364 48.9587 50.7368 49.7705 50.7368Z" fill="#FEB93F"/>
<path d="M60.3876 59.8691C59.1914 59.8691 58.0547 59.2184 57.0124 57.9331L56.9665 57.8764L56.9287 57.8197C56.4392 57.1732 56.2099 56.3668 56.286 55.5596C56.3103 55.2583 56.4095 54.9679 56.5745 54.7147C56.7396 54.4614 56.9653 54.2534 57.2311 54.1096C57.4809 53.9782 57.7589 53.9097 58.0412 53.9098C58.1162 53.9098 58.1911 53.9152 58.2653 53.926C58.6082 52.3977 59.7234 50.6857 62.6612 49.6057L62.7098 49.5895L62.7557 49.5733C63.1988 49.4399 63.6569 49.3628 64.1193 49.3438H64.1922C65.1049 49.3438 65.9041 49.8838 66.5657 50.9639C66.9801 51.3926 67.2107 51.9661 67.2083 52.5624V52.6002C67.2083 54.2203 65.7664 55.3139 64.6809 56.0024L64.6269 56.0375L64.5675 56.0699C64.0639 56.3484 63.5033 56.5081 62.9285 56.5371H62.8178C62.6842 56.5371 62.551 56.5217 62.4209 56.4912L62.5559 57.6279V57.7252C62.5643 58.011 62.5137 58.2956 62.4074 58.5611C62.3011 58.8267 62.1413 59.0675 61.9379 59.2686C61.7345 59.4697 61.4919 59.6268 61.2252 59.7301C60.9585 59.8334 60.6734 59.8807 60.3876 59.8691Z" fill="#2B0245"/>
<path d="M58.8052 45.9276C59.2751 45.9276 59.6828 46.3191 60.023 47.1022V47.2291C60.023 47.6917 58.8439 49.0364 56.4858 51.2632C55.497 52.197 54.5715 53.1956 53.7154 54.2523H53.7586C56.0483 52.0921 57.5199 51.012 58.1734 51.012C59.0159 51.2524 59.4371 51.6601 59.4371 52.2298V52.2676C59.2715 53.1677 58.4713 54.4575 57.0366 56.137C55.6541 57.5411 54.421 58.2423 53.3373 58.2405H53.2914C52.6191 58.1217 52.2816 57.7868 52.2816 57.2306C52.2842 57.084 52.3194 56.9398 52.3848 56.8085C52.4502 56.6772 52.5441 56.5622 52.6596 56.4718H52.7055L52.7487 56.5177H52.7865L52.7487 57.0227V57.0659C52.7838 57.3359 52.9107 57.4844 53.1267 57.4844H53.205C54.0529 57.4844 55.2167 56.4754 56.6964 54.4575C57.5388 53.2388 57.9601 52.3702 57.9601 51.8518C57.3174 51.9364 56.1536 52.7465 54.4687 54.282C52.6686 56.2441 51.7415 57.2252 51.6875 57.2252C51.6875 57.2792 51.62 57.3062 51.4796 57.3062C51.1421 57.2819 50.9747 57.1172 50.9747 56.8094C50.9747 56.2693 51.6605 55.1469 53.0322 53.4422C53.8441 52.3783 55.4723 50.4144 57.9169 47.5504C58.2402 47.1626 58.5217 46.7417 58.7566 46.2948L58.7107 45.9519L58.7566 45.9141L58.8052 45.9276Z" fill="#FEB93F"/>
<path d="M64.1868 50.9663C64.5469 50.9663 64.9132 51.3056 65.2858 51.9843C65.3775 52.049 65.4523 52.1348 65.504 52.2344C65.5556 52.334 65.5827 52.4445 65.5828 52.5567V52.5945C65.5828 53.1994 64.9906 53.878 63.8061 54.6305C63.5099 54.8025 63.1763 54.8998 62.8341 54.914C62.78 54.914 62.7476 54.914 62.7368 54.8762C62.726 54.8384 62.7368 54.8195 62.7962 54.7952C64.2364 53.6395 64.9564 52.824 64.9564 52.3488C64.9321 52.2651 64.8322 52.2381 64.6594 52.2678C63.4551 52.2678 62.3282 52.8645 61.2787 54.058C60.9512 54.5372 60.7642 55.0983 60.7387 55.6781V55.9671L60.9466 57.7141C60.9558 57.7866 60.948 57.8603 60.9239 57.9293C60.8998 57.9983 60.86 58.0608 60.8077 58.1118C60.7554 58.1629 60.6919 58.201 60.6223 58.2234C60.5527 58.2457 60.4788 58.2516 60.4066 58.2406C59.7189 58.2406 59.0133 57.7951 58.2896 56.904C58.0283 56.5812 57.8938 56.1741 57.9116 55.7591C57.9116 55.6349 57.9575 55.562 58.0034 55.5377C58.0123 55.5312 58.0225 55.5265 58.0333 55.5241C58.0441 55.5216 58.0552 55.5214 58.0661 55.5234C58.077 55.5254 58.0874 55.5297 58.0965 55.5358C58.1057 55.542 58.1135 55.55 58.1195 55.5593L58.5947 56.472C58.7651 56.7189 58.9908 56.9227 59.2537 57.067C59.5167 57.2114 59.8098 57.2924 60.1096 57.3036C60.1744 57.3036 60.2095 57.3036 60.2149 57.2685C60.2172 57.2249 60.2088 57.1813 60.1906 57.1416C59.9528 56.4896 59.8109 55.8066 59.7693 55.1138C59.7693 53.3137 60.9259 51.9834 63.2391 51.1229C63.5475 51.0326 63.8658 50.9801 64.1868 50.9663Z" fill="#FEB93F"/>
</svg>
